<svg id="Capa_1" enable-background="new 0 0 511.915 511.915" height="512" viewBox="0 0 511.915 511.915" width="512" xmlns="http://www.w3.org/2000/svg"><g id="XMLID_22_"><g id="XMLID_58_"><path id="XMLID_60_" d="m144.169 167.248c-49.735 0-90.198 40.463-90.198 90.198v81.469c0 5.523 4.477 10 10 10s10-4.477 10-10v-81.469c0-38.708 31.491-70.198 70.198-70.198 18.442 0 35.612 6.972 48.758 19.713v100.969c-13.146 12.742-30.316 19.714-48.758 19.714-2.589 0-5.173-.144-7.736-.425v-1.899c0-2.165.843-4.199 2.374-5.729 3.905-3.905 3.905-10.237 0-14.143-3.905-3.905-10.237-3.905-14.143 0-5.308 5.308-8.231 12.365-8.231 19.872v166.593h-42.462v-63c0-5.523-4.477-10-10-10s-10 4.477-10 10v73c0 5.523 4.477 10 10 10h62.462c5.523 0 10-4.477 10-10v-154.6c2.569.219 5.151.331 7.736.331 24.975 0 49.062-10.509 66.084-28.833 1.718-1.85 2.673-4.281 2.673-6.806v-109.118c0-2.525-.955-4.956-2.673-6.806-17.022-18.324-41.109-28.833-66.084-28.833z"/><path id="XMLID_62_" d="m110.031 246.228c3.335 0 6.597-1.668 8.493-4.707 2.511-4.023 5.98-7.451 10.033-9.913 4.72-2.867 6.223-9.018 3.355-13.738-2.867-4.721-9.02-6.223-13.738-3.355-6.712 4.077-12.458 9.754-16.617 16.417-2.924 4.686-1.496 10.854 3.189 13.778 1.647 1.027 3.477 1.518 5.285 1.518z"/><path id="XMLID_64_" d="m169.997 264.514c1.86-1.86 2.93-4.44 2.93-7.07s-1.07-5.21-2.93-7.07-4.44-2.93-7.07-2.93-5.21 1.07-7.07 2.93-2.93 4.44-2.93 7.07 1.07 5.21 2.93 7.07 4.44 2.93 7.07 2.93 5.21-1.069 7.07-2.93z"/><path id="XMLID_67_" d="m367.745 167.248c-24.975 0-49.062 10.509-66.084 28.833-1.718 1.85-2.673 4.281-2.673 6.806v109.119c0 2.525.955 4.956 2.673 6.806 17.022 18.324 41.109 28.833 66.084 28.833 2.584 0 5.166-.113 7.736-.331v154.601c0 5.523 4.477 10 10 10h62.462c5.523 0 10-4.477 10-10v-244.469c0-49.735-40.462-90.198-90.198-90.198zm70.198 324.667h-42.462v-166.594c0-7.507-2.923-14.564-8.231-19.872-3.905-3.905-10.237-3.905-14.143 0s-3.905 10.237 0 14.143c1.531 1.53 2.374 3.565 2.374 5.729v1.899c-2.563.281-5.147.425-7.736.425-18.442 0-35.612-6.972-48.758-19.714v-100.97c13.146-12.741 30.316-19.713 48.758-19.713 38.707 0 70.198 31.491 70.198 70.198z"/><path id="XMLID_69_" d="m393.741 214.514c-4.72-2.867-10.872-1.365-13.738 3.355-2.867 4.721-1.365 10.872 3.355 13.738 4.052 2.461 7.521 5.889 10.033 9.913 1.896 3.039 5.157 4.707 8.493 4.707 1.808 0 3.639-.49 5.285-1.518 4.685-2.924 6.113-9.092 3.189-13.778-4.159-6.663-9.905-12.34-16.617-16.417z"/><path id="XMLID_70_" d="m348.987 247.444c-2.63 0-5.21 1.07-7.07 2.93s-2.93 4.44-2.93 7.07 1.07 5.21 2.93 7.07 4.44 2.93 7.07 2.93 5.21-1.07 7.07-2.93 2.93-4.44 2.93-7.07-1.07-5.21-2.93-7.07-4.44-2.93-7.07-2.93z"/><path id="XMLID_71_" d="m303.286 134.571c-26.105-26.104-68.581-26.104-94.687 0-3.905 3.905-3.905 10.237 0 14.143 3.905 3.905 10.237 3.905 14.143 0 18.307-18.308 48.095-18.308 66.401 0 1.953 1.953 4.512 2.929 7.071 2.929s5.119-.976 7.071-2.929c3.906-3.905 3.906-10.237.001-14.143z"/><path id="XMLID_72_" d="m167.549 93.52c-3.905 3.905-3.905 10.237 0 14.143 3.905 3.905 10.237 3.905 14.143 0 19.833-19.833 46.203-30.756 74.252-30.756s54.419 10.923 74.252 30.756c1.953 1.953 4.512 2.929 7.071 2.929s5.119-.976 7.071-2.929c3.905-3.905 3.905-10.237 0-14.143-48.742-48.74-128.048-48.74-176.789 0z"/><path id="XMLID_73_" d="m141.391 67.363c63.163-63.164 165.938-63.165 229.103 0 1.953 1.953 4.512 2.929 7.071 2.929s5.119-.976 7.071-2.929c3.905-3.905 3.905-10.237 0-14.143-70.962-70.961-186.425-70.96-257.387 0-3.906 3.905-3.906 10.237 0 14.142 3.907 3.907 10.238 3.906 14.142.001z"/><path id="XMLID_75_" d="m63.987 393.915c2.63 0 5.21-1.07 7.07-2.93s2.93-4.44 2.93-7.07-1.07-5.21-2.93-7.07-4.44-2.93-7.07-2.93-5.21 1.07-7.07 2.93-2.93 4.44-2.93 7.07 1.07 5.21 2.93 7.07c1.86 1.859 4.43 2.93 7.07 2.93z"/></g></g></svg>